<svg width="88" height="88" viewBox="0 0 88 88" fill="none" xmlns="http://www.w3.org/2000/svg">
<g id="man">
<path d="M34.5 1.52588e-05C39.0087 1.52588e-05 43.3327 1.79108 46.5208 4.9792C49.709 8.16732 51.5 12.4913 51.5 17C51.5 21.5087 49.709 25.8327 46.5208 29.0208C43.3327 32.209 39.0087 34 34.5 34C29.9913 34 25.6673 32.209 22.4792 29.0208C19.2911 25.8327 17.5 21.5087 17.5 17C17.5 12.4913 19.2911 8.16732 22.4792 4.9792C25.6673 1.79108 29.9913 1.52588e-05 34.5 1.52588e-05ZM34.5 68.0001C34.5 68.0001 68.5 68.0001 68.5 59.5C68.5 49.3 51.925 38.25 34.5 38.25C17.075 38.25 0.5 49.3 0.5 59.5C0.5 68.0001 34.5 68.0001 34.5 68.0001Z" fill="#EFEDE8" fill-opacity="0.1"/>

</g>
<g id="github">
        <path fill-rule="evenodd" clip-rule="evenodd" d="M44 0C19.69 0 0 19.69 0 44C0 63.47 12.595 79.915 30.085 85.745C32.285 86.13 33.11 84.81 33.11 83.655C33.11 82.61 33.055 79.145 33.055 75.46C22 77.495 19.14 72.765 18.26 70.29C17.765 69.025 15.62 65.12 13.75 64.075C12.21 63.25 10.01 61.215 13.695 61.16C17.16 61.105 19.635 64.35 20.46 65.67C24.42 72.325 30.745 70.455 33.275 69.3C33.66 66.44 34.815 64.515 36.08 63.415C26.29 62.315 16.06 58.52 16.06 41.69C16.06 36.905 17.765 32.945 20.57 29.865C20.13 28.765 18.59 24.255 21.01 18.205C21.01 18.205 24.695 17.05 33.11 22.715C36.63 21.725 40.37 21.23 44.11 21.23C47.85 21.23 51.59 21.725 55.11 22.715C63.525 16.995 67.21 18.205 67.21 18.205C69.63 24.255 68.09 28.765 67.65 29.865C70.455 32.945 72.16 36.85 72.16 41.69C72.16 58.575 61.875 62.315 52.085 63.415C53.68 64.79 55.055 67.43 55.055 71.555C55.055 77.44 55 82.17 55 83.655C55 84.81 55.825 86.185 58.025 85.745C66.7597 82.796 74.3497 77.1822 79.7268 69.6937C85.1039 62.2052 87.9974 53.219 88 44C88 19.69 68.31 0 44 0Z" />
</g>
<g id="github1">
        <path fill="#000" fill-rule="evenodd" clip-rule="evenodd" d="M44 0C19.69 0 0 19.69 0 44C0 63.47 12.595 79.915 30.085 85.745C32.285 86.13 33.11 84.81 33.11 83.655C33.11 82.61 33.055 79.145 33.055 75.46C22 77.495 19.14 72.765 18.26 70.29C17.765 69.025 15.62 65.12 13.75 64.075C12.21 63.25 10.01 61.215 13.695 61.16C17.16 61.105 19.635 64.35 20.46 65.67C24.42 72.325 30.745 70.455 33.275 69.3C33.66 66.44 34.815 64.515 36.08 63.415C26.29 62.315 16.06 58.52 16.06 41.69C16.06 36.905 17.765 32.945 20.57 29.865C20.13 28.765 18.59 24.255 21.01 18.205C21.01 18.205 24.695 17.05 33.11 22.715C36.63 21.725 40.37 21.23 44.11 21.23C47.85 21.23 51.59 21.725 55.11 22.715C63.525 16.995 67.21 18.205 67.21 18.205C69.63 24.255 68.09 28.765 67.65 29.865C70.455 32.945 72.16 36.85 72.16 41.69C72.16 58.575 61.875 62.315 52.085 63.415C53.68 64.79 55.055 67.43 55.055 71.555C55.055 77.44 55 82.17 55 83.655C55 84.81 55.825 86.185 58.025 85.745C66.7597 82.796 74.3497 77.1822 79.7268 69.6937C85.1039 62.2052 87.9974 53.219 88 44C88 19.69 68.31 0 44 0Z" />
</g>
<g id="chain">
    <path  d="M11.2867 8.71333C10.6041 8.03103 9.67846 7.64774 8.71334 7.64774C7.74821 7.64774 6.82259 8.03103 6.14 8.71333L3.56584 11.2867C2.88324 11.9693 2.49976 12.8951 2.49976 13.8604C2.49976 14.8258 2.88324 15.7516 3.56584 16.4342C4.24844 17.1168 5.17424 17.5002 6.13959 17.5002C7.10493 17.5002 8.03074 17.1168 8.71334 16.4342L10 15.1475" stroke-width="1.66667" stroke-linecap="round" stroke-linejoin="round"/>
    <path d="M8.71338 11.2867C9.39597 11.969 10.3216 12.3523 11.2867 12.3523C12.2518 12.3523 13.1775 11.969 13.86 11.2867L16.4342 8.71334C17.1168 8.03074 17.5003 7.10493 17.5003 6.13959C17.5003 5.17424 17.1168 4.24844 16.4342 3.56584C15.7516 2.88324 14.8258 2.49976 13.8605 2.49976C12.8951 2.49976 11.9693 2.88324 11.2867 3.56584L10 4.8525"  stroke-width="1.66667" stroke-linecap="round" stroke-linejoin="round"/>
</g>
<g id="twitter">
    <path d="M16.875 1.875C8.59152 1.875 1.875 8.59152 1.875 16.875C1.875 25.1585 8.59152 31.875 16.875 31.875C25.1585 31.875 31.875 25.1585 31.875 16.875C31.875 8.59152 25.1585 1.875 16.875 1.875ZM24.0837 13.1819C24.0937 13.3393 24.0937 13.5033 24.0937 13.6641C24.0937 18.5792 20.3504 24.2411 13.51 24.2411C11.4007 24.2411 9.44531 23.6283 7.79799 22.5737C8.09933 22.6071 8.38728 22.6205 8.69531 22.6205C10.4364 22.6205 12.0368 22.0312 13.3125 21.0335C11.6786 21 10.3058 19.9286 9.83705 18.4554C10.4096 18.5391 10.9252 18.5391 11.5145 18.3884C10.6732 18.2175 9.91699 17.7605 9.37438 17.0953C8.83178 16.43 8.53623 15.5973 8.53795 14.7388V14.692C9.03013 14.9699 9.60938 15.1406 10.2154 15.1641C9.70595 14.8245 9.28814 14.3645 8.99903 13.8249C8.70993 13.2852 8.55845 12.6825 8.55804 12.0703C8.55804 11.3772 8.73884 10.7444 9.06362 10.1953C9.99744 11.3449 11.1627 12.2851 12.4837 12.9548C13.8047 13.6245 15.2518 14.0088 16.731 14.0826C16.2054 11.5547 18.0938 9.50893 20.3638 9.50893C21.4353 9.50893 22.3996 9.95759 23.0792 10.6808C23.9196 10.5234 24.7232 10.2087 25.4397 9.78683C25.1618 10.6473 24.5792 11.3739 23.8058 11.8326C24.5558 11.7522 25.279 11.5446 25.9487 11.2533C25.4431 11.9967 24.8103 12.6562 24.0837 13.1819Z"/>
</g>
<g id="greensock">
    <path stroke="#000" fill="#000" d="M67.365 119.745C65.8012 119.471 64.1812 118.729 63.2625 117.907C62.6388 117.253 62.2829 116.389 62.265 115.485C62.265 114.566 62.7337 113.276 63.4762 111.99C63.9262 111.266 64.2787 110.486 64.53 109.665C64.6875 109.099 65.0175 108.18 65.2725 107.595L65.7225 106.522L65.8387 99.3562C65.8987 95.3924 66.015 91.7212 66.1125 91.1512C66.3675 89.5087 66.795 87.9074 67.3612 86.3474L67.7925 85.3124L67.1662 84.9412C66.6 84.5887 66.1312 84.1012 64.275 81.8924C61.9912 79.1962 58.9837 77.7112 54.7237 77.2049C53.3362 77.0699 51.93 76.9687 50.5237 76.9124C44.2725 76.6199 40.6987 75.3112 37.4775 72.1462C35.0737 69.7837 33.825 67.0274 33.3187 62.9662C32.6362 57.4762 31.875 54.6637 30.4687 52.3799C30.1221 51.8159 29.7228 51.2861 29.2762 50.7974L28.71 50.2312L27.4612 51.0337C26.7787 51.4837 25.8187 52.0499 25.35 52.3049C23.7862 53.1637 22.3012 54.1199 20.8762 55.1549C17.3812 57.6937 13.5712 60.8774 11.4825 62.9662C10.545 63.9037 10.0575 64.3124 9.83998 64.2749C8.41498 64.0612 9.50623 57.8887 11.8312 53.2387C14.8012 47.2424 19.8 41.7149 25.5825 37.9837C30.33 34.9162 38.0062 30.6974 41.5575 29.2124C47.865 26.5762 56.0287 23.7224 61.6162 22.1999C62.79 21.8662 63.51 21.5737 63.9975 21.2437C65.0925 20.4824 66.165 20.1112 67.395 20.0924C68.43 20.0737 68.5275 20.0549 69.525 19.3874C70.6987 18.6262 71.0475 18.5849 72.2212 18.9974L72.9825 19.2712L73.92 18.6262L74.8575 17.9999L76.2037 18.0187C77.2387 18.0374 77.7075 17.9999 78.1575 17.8049C78.7237 17.5499 78.7425 17.5124 78.9 16.5749C79.2525 14.5424 79.29 13.5262 79.0762 12.2962C78.8025 10.6762 78.765 4.38744 79.0387 3.15369C79.3312 1.82619 79.5262 1.55244 80.5237 1.06494C82.0087 0.341191 83.1225 0.127441 85.68 0.127441C88.8037 0.127441 90.3862 0.558691 91.56 1.69119C92.6137 2.70744 92.79 5.08869 92.2425 10.6762C91.9087 13.8974 91.8712 14.7974 91.9687 16.9049C92.0062 18.2512 92.1037 19.5224 92.145 19.6987C92.2237 20.0324 92.3025 20.0512 93.435 20.0699C94.5487 20.0887 94.7437 20.1487 95.7975 20.6962C96.8137 21.2249 97.575 21.8699 97.7325 22.3387C97.7512 22.4362 97.9275 22.4362 98.2387 22.3387C98.8425 22.1624 99.3712 22.3574 99.8025 22.8862C100.057 23.2199 100.211 23.2762 100.8 23.2762C101.602 23.2762 101.895 23.4712 102.559 24.4499C102.869 24.8892 103.295 25.2344 103.789 25.4474C104.884 25.9949 106.369 27.5174 106.935 28.7287C107.812 30.5249 107.989 32.6137 107.441 34.4887C107.246 35.1937 107.246 35.2124 107.655 35.8949C108.514 37.3612 108.829 39.1574 108.476 40.6799L108.281 41.5799L108.866 42.1649C111.776 45.0749 111.345 49.8224 107.794 54.0599C107.397 54.544 107.062 55.0756 106.796 55.6424C106.114 57.4574 105.33 58.7287 104.317 59.7824L103.282 60.8362H102.229C101.175 60.8362 99.69 60.4837 98.79 60.0149C98.4187 59.8199 98.4 59.8199 98.4787 60.0524C98.715 60.9112 99.3 64.4062 99.495 66.3412C99.8062 69.3112 99.7087 73.6274 99.3 75.4837C99.0013 76.8585 98.5008 78.1816 97.815 79.41C97.425 80.0362 97.4062 80.1712 97.4812 80.9324C97.5975 82.005 97.3462 83.8049 96.915 84.9937C96.3862 86.3812 96.1912 87.0262 96.075 87.7274C95.9775 88.3312 95.9775 88.3312 96.4087 88.3312C96.975 88.3312 97.2862 88.6649 97.2862 89.3287C97.2862 89.6212 97.0312 91.2037 96.72 92.8237C95.8612 97.3762 95.8012 97.8824 95.8012 102.296C95.7825 106.849 95.7825 106.807 96.8175 107.49L99.1425 108.994C101.143 110.321 103.285 111.422 105.529 112.275C108.791 113.565 109.241 113.895 109.241 114.99C109.241 115.477 109.144 115.654 108.735 116.044C107.486 117.255 105.022 117.529 100.061 117C97.4832 116.758 94.8955 116.635 92.3062 116.629C85.47 116.531 84.4725 116.295 83.5762 114.596C83.07 113.621 83.1675 112.35 83.8687 110.261C84.18 109.342 84.4537 108.405 84.69 107.449C85.1587 105.184 84.8475 102.487 83.7525 99.4424L82.815 96.8437C81.8962 94.2075 81.39 89.3812 81.9375 88.2899C82.035 88.0762 82.2112 88.035 82.68 88.0537L83.265 88.1137L83.7525 87.0974C84.1237 86.2949 84.5325 85.77 85.6462 84.6562L87.0712 83.2312L86.9925 82.3124C86.9325 81.4349 85.7812 77.1749 85.6237 77.1937C85.5637 77.1937 85.2525 77.6249 84.9 78.1687C84.0412 79.4587 82.1475 81.4499 81.0712 82.1737C80.6025 82.4849 80.2125 82.8562 80.2125 82.9762C80.1937 83.505 79.7437 84.5399 79.1962 85.2599C78.6675 85.9649 78.63 86.0812 78.7087 86.7037C78.8437 87.6224 78.5512 90.5699 78.2025 92.1149C77.8864 93.2621 77.4541 94.3741 76.9125 95.4337C75.5662 98.2274 74.55 100.725 74.295 101.88C74.1108 102.992 73.9931 104.114 73.9425 105.24C73.8825 106.567 73.7475 107.857 73.65 108.131C73.515 108.502 73.515 108.795 73.6312 109.361C73.7287 109.77 73.7887 110.689 73.7662 111.412C73.7475 112.41 73.8262 113.055 74.1187 114.225C74.625 116.216 74.7225 117.469 74.49 118.211C74.3325 118.68 74.1787 118.856 73.65 119.111C72.4762 119.715 69.1575 120.049 67.3612 119.737L67.365 119.745ZM72.1087 118.144C72.7912 117.949 73.38 117.364 73.38 116.835C73.38 116.599 73.185 115.916 72.9487 115.312C72.48 114.161 71.6775 111.112 71.6775 110.606C71.6775 110.351 71.6962 110.332 72.0862 110.546L72.5175 110.782V110.235C72.4549 109.73 72.3431 109.233 72.1837 108.75C71.8125 107.636 71.775 107.617 69.4087 107.479L67.8075 107.4L67.2225 107.966C66.9008 108.297 66.6189 108.665 66.3825 109.061C66.1275 109.567 66.03 110.332 66.1875 110.505C66.225 110.565 66.6187 110.505 67.0462 110.407C67.3 110.332 67.5618 110.287 67.8262 110.272C67.8262 110.291 67.395 110.644 66.8512 111.015C64.5075 112.774 63.6862 113.846 63.6862 115.215C63.6862 116.64 65.0325 117.754 67.1437 118.087C68.5875 118.301 71.4 118.361 72.105 118.147L72.1087 118.144ZM103.886 115.819C104.471 115.114 104.392 114.394 103.65 113.572C103.219 113.141 102.731 112.77 102.184 112.477C101.636 112.185 101.089 111.851 100.541 111.502C99.551 110.861 98.5338 110.261 97.4925 109.706C96.5925 109.219 95.715 108.709 94.8562 108.165L94.5037 107.891V102.521C94.5037 97.2299 94.485 97.1512 94.2112 97.2299C92.8425 97.6012 90.5775 97.7775 87.7087 97.7174L84.6037 97.6799L85.0537 98.7749C85.8937 100.845 86.325 103.62 86.325 106.804C86.325 107.996 86.2462 108.424 85.9537 109.264C85.7962 109.672 85.6612 110.085 85.5225 110.494C85.4625 110.67 85.68 110.805 86.4787 111.041C87.0637 111.217 87.9225 111.394 88.4137 111.45L89.3137 111.547L89.2162 112.447C89.1187 113.464 89.235 114.536 89.49 114.87C89.6475 115.065 90.2325 115.144 92.9475 115.26C94.9987 115.357 97.2262 115.571 98.9812 115.826C100.504 116.062 102.146 116.257 102.634 116.257C103.455 116.276 103.534 116.239 103.882 115.826L103.886 115.819ZM72.6187 106.68C72.6975 106.62 72.8137 105.566 72.855 104.317C73.0125 100.822 73.1475 100.312 74.9062 96.3674C76.35 93.1462 77.115 90.1387 77.055 88.0087L77.0175 86.7374L76.47 87.2662C75.3375 88.3987 76.1175 86.6212 77.4675 85.0387C78.4837 83.8274 78.8362 83.1637 78.99 82.0912C79.0687 81.66 79.2262 81.4462 79.89 80.9399C82.3735 79.0639 84.2871 76.5349 85.4175 73.6349C85.6912 72.9299 86.3925 70.5299 86.9812 68.3024C88.0762 64.1812 88.6612 62.4037 89.19 61.6424C89.385 61.3499 89.4637 61.2899 89.4262 61.4849C89.143 62.5323 88.9214 63.5954 88.7625 64.6687C88.605 65.6249 88.3125 67.4999 88.1175 68.8087C87.7462 71.4862 87.3562 73.2037 86.8275 74.5312L86.475 75.4312L87.4125 77.8537C88.3875 80.3324 88.8375 82.1324 88.9162 83.8687L88.9762 84.8437L88.215 85.0012C87.2102 85.179 86.3136 85.7396 85.7137 86.5649C85.05 87.5212 84.6787 88.3049 84.855 88.4774C84.9337 88.5562 85.89 88.7324 86.985 88.8674C88.6837 89.0624 89.3287 89.0624 91.575 88.9274C92.55 88.8899 93.51 88.7924 94.4662 88.6537C94.68 88.575 94.8975 88.1474 95.2462 87.0337C96.0487 84.4762 96.2025 83.5762 96.105 81.7799L96.0262 80.1974L96.435 79.6687C97.3912 78.4575 98.1337 76.2712 98.445 73.7099C98.8162 70.5862 98.1337 64.0424 96.8625 58.4174C96.2587 55.7399 96.0037 54.1387 96.0037 52.9687V51.9337L95.0475 52.0312C91.6087 52.4024 87.45 52.3049 84.9112 51.7762C83.5237 51.5024 80.0287 50.4674 79.2675 50.1337L78.6637 49.8599L78.585 50.5424C78.525 50.9137 78.4687 51.2849 78.39 51.6749C78.2737 52.0837 78.3112 52.1812 79.035 52.8862C79.935 53.8049 80.2087 54.2737 80.2087 54.8962C80.2087 55.2862 79.995 55.6012 78.9 56.7337C78.1149 57.5715 77.2438 58.3244 76.3012 58.9799L75.03 59.8387L74.4825 61.7324C72.5287 68.6662 72.1575 74.9737 73.4475 79.4849L73.7587 80.6174L73.1325 81.3974C70.7887 84.3449 69.4012 86.5912 69.1875 87.8437C69.0625 88.4604 68.9187 89.0732 68.7562 89.6812C68.25 91.6162 67.8562 94.4474 67.6837 97.5149C67.5635 100.083 67.3948 102.648 67.1775 105.21L67.08 105.971L68.055 106.264C68.6025 106.44 69.4237 106.635 69.8925 106.714C70.77 106.849 72.3937 106.811 72.645 106.676L72.6187 106.68ZM91.5825 95.9362C93.105 95.8387 94.4925 95.6024 94.7662 95.3699C94.8825 95.2912 95.0212 94.8824 95.0587 94.4699L95.1562 93.7274L93.945 94.0012C92.9887 94.1962 92.0325 94.3124 91.0725 94.3912C88.7662 94.4887 86.445 94.4287 84.1575 94.1962C83.3962 94.0799 83.3962 94.0799 83.6287 95.0737C83.8237 95.8162 83.865 95.8537 85.8562 95.9924C87.1837 96.1087 89.04 96.09 91.5787 95.9324L91.5825 95.9362ZM90.3112 92.5387C92.3025 92.3624 94.785 91.9349 95.2725 91.6799C95.43 91.6012 95.565 91.3087 95.625 90.9749L95.8012 89.9399L95.8987 89.4524L95.4112 89.5499C93.2437 89.9999 91.6012 90.1349 88.32 90.1349C85.1175 90.1349 84.7462 90.1162 83.9062 89.8237C83.5834 89.6876 83.2397 89.6077 82.89 89.5874C82.755 89.6662 82.7325 90.7799 82.8525 91.5599C82.9312 92.0287 83.01 92.1074 83.4787 92.2424C84.9637 92.6512 87.465 92.7487 90.315 92.5162L90.3112 92.5387ZM54.0637 74.9212C59.0625 73.4774 65.6062 69.2362 70.9575 63.9262C72.6975 62.1862 72.9112 61.9537 73.1437 61.1737L73.455 60.1762C73.4925 60.0974 73.1812 59.9624 72.7725 59.8649C71.7 59.6099 70.8787 58.9874 70.8787 58.4212C70.8787 58.0874 70.6837 57.7574 70.1175 57.1499C69.1987 56.1149 68.9662 55.6649 68.8687 54.6712L68.79 53.8687L67.695 53.0887C67.0687 52.6387 64.8825 51.4274 62.5575 50.2574C60.7872 49.3938 59.0544 48.4555 57.3637 47.4449C55.41 46.1362 54.1012 44.5724 53.3587 42.7199C53.2237 42.3487 53.0475 42.0374 52.9875 42.0374C52.83 42.0374 48.435 46.2749 46.56 48.2662C41.9325 53.1487 38.7487 57.3862 36.735 61.3124C36.2287 62.2874 35.6812 63.4424 35.5237 63.8699L35.2312 64.6499L35.5837 65.9587C35.7975 66.6637 36.2475 67.8149 36.6 68.4974C37.83 70.9199 39.2962 72.3824 41.7187 73.575C44.3175 74.8649 46.62 75.3149 50.4675 75.255C52.5375 75.2362 53.145 75.1762 54.06 74.9025L54.0637 74.9212ZM14.61 57.7912C17.8912 54.8812 22.4212 51.6974 27.9712 48.3974C31.605 46.2299 45.6487 39.1987 52.1137 36.3262C53.2875 35.7974 54.3412 35.3099 54.4575 35.2537C54.5737 35.1749 54.9075 34.3349 55.2187 33.3974C56.5875 29.0624 57.27 28.2037 59.7487 27.6374C60.06 27.5587 60.1387 27.4612 60.1387 27.1499C60.1387 26.5837 60.5287 25.2749 60.8625 24.6899C61.1175 24.2399 61.1175 24.2212 60.9 24.2812C60.765 24.3187 59.9437 24.5549 59.085 24.8099C47.1712 28.2487 36.7612 32.8162 27.7762 38.5199C18.1875 44.6137 12.66 51.9187 11.0587 60.6674L10.9425 61.3124L12.1162 60.1612C12.7425 59.5162 13.875 58.4624 14.6175 57.8174L14.61 57.7912ZM102.99 59.4524C103.946 58.9649 105.431 56.7187 105.979 54.9412C106.136 54.3149 106.447 53.7299 106.897 53.2424C108.341 51.6412 109.534 48.7312 109.552 46.7399C109.552 43.6349 107.794 42.4424 105.236 43.7699C104.902 43.9274 104.632 44.0437 104.591 44.0062C104.456 43.8712 105.176 43.1662 106.057 42.6187C107.209 41.8574 107.426 41.4074 107.426 39.7874C107.443 38.478 107.054 37.1955 106.312 36.1162C105.96 35.5874 105.825 35.2387 105.881 35.0212L106.234 33.7124C106.721 31.9724 106.545 29.9812 105.784 28.7137C104.651 26.8012 103.264 25.8637 101.329 25.7062L100.196 25.6274L100.86 26.3699C102.832 28.4999 103.789 31.1737 103.399 33.4612C103.204 34.6349 103.027 34.8674 101.895 35.3174L101.231 35.5912L101.31 36.4912C101.445 37.9574 101.194 39.0299 100.256 41.0024C99.7875 41.9999 99.435 42.8962 99.4762 42.9937C99.5925 43.3274 100.882 43.9499 101.899 44.2049L102.896 44.4412L102.27 44.6549C101.449 44.9099 101.272 45.2812 101.272 46.6274C101.272 47.8574 101.449 48.3674 102.345 49.7137C102.754 50.2987 103.027 50.9062 103.069 51.2549C103.147 51.8024 103.129 51.8399 102.679 51.9974C102.169 52.1406 101.644 52.2261 101.115 52.2524C99.2775 52.3687 99.1425 52.4287 98.3212 53.2087C97.5787 53.9137 97.56 53.9512 97.56 54.7312C97.56 55.8037 97.9687 57.9749 98.2237 58.2674C98.5575 58.6199 100.41 59.5387 101.134 59.6737C101.758 59.8304 102.418 59.7544 102.99 59.4599V59.4524ZM75.9375 57.9899C77.13 57.0524 78.0675 56.1149 78.5925 55.3124C78.9262 54.8249 78.945 54.7274 78.7875 54.3149C78.5137 53.6887 76.7175 52.0687 75.72 51.5812C75.0553 51.2834 74.3522 51.0802 73.6312 50.9774L72.4012 50.8199L71.64 49.8637C70.0575 47.9099 69.18 46.3874 67.9275 43.4362C66.8325 40.9349 65.8762 39.4724 64.3537 38.0249C63.7275 37.4399 63.2812 36.9524 63.3187 36.9524C63.3975 36.9524 64.14 37.3237 64.9987 37.7737C66.4237 38.5349 66.6 38.5949 67.245 38.4974C69.57 38.2237 71.6212 35.5499 72.3637 31.7999C72.5775 30.7462 73.0087 29.6699 73.4587 29.0249C73.4775 29.0062 74.3775 29.5912 75.4312 30.3524C78.1087 32.2462 78.6937 32.5387 80.2162 32.5987C81.2137 32.6362 81.78 32.5612 83.5762 32.1299C87.405 31.1924 91.545 30.8212 94.065 31.1549C95.49 31.3499 97.5412 31.9762 99.0637 32.6962C100.567 33.4012 100.86 33.4387 101.347 33.0074C101.756 32.6549 101.756 32.5987 101.756 31.2899C101.737 29.3549 101.032 27.2662 99.96 26.0174C99.4125 25.3724 97.8712 24.3187 96.345 23.5162C95.8024 23.2284 95.2624 22.9359 94.725 22.6387C94.0012 22.2074 93.1837 22.2674 90.9562 22.8524C88.3762 23.5162 87.6937 23.5162 84.7462 22.7549C82.245 22.1287 82.0912 22.1099 79.6275 22.4999C78.3187 22.6949 75.0375 22.5787 73.9425 22.2862C73.395 22.1287 72.8475 21.9749 72.3225 21.7799C71.3662 21.4087 69.705 21.3487 68.2012 21.6224C65.2125 22.1512 62.9475 23.7712 62.1262 25.9762C61.695 27.0899 61.755 27.6187 62.3212 27.9674C63.2212 28.5337 64.41 30.0787 64.41 30.6824C64.41 30.7199 64.1175 30.4687 63.7837 30.1162C62.9437 29.2387 62.1825 28.8449 61.2825 28.8449C60.7002 28.8611 60.134 29.0396 59.6476 29.3603C59.1613 29.681 58.7742 30.1311 58.53 30.6599C58.2672 31.35 58.0455 32.0549 57.8662 32.7712C57.3187 34.7624 56.8312 35.8199 55.7962 37.2262C54.8775 38.4974 54.7425 39.0637 55.0725 40.4887C55.8937 44.0812 57.3187 45.5287 63.2737 48.9074C66.3975 50.6849 67.9987 51.6824 69.1725 52.5599C70.0725 53.2237 70.0912 53.2649 70.0125 53.7712C69.8362 54.9449 70.5787 56.2124 72.045 57.2474C72.4162 57.5024 72.6487 57.7762 72.6487 57.9712C72.6487 58.3237 73.6462 58.8112 74.3662 58.8112C74.775 58.8112 75.09 58.6349 75.93 57.9899H75.9375ZM100.02 51.4049C102.285 51.4837 102.401 51.3074 101.194 49.9012C99.9225 48.4349 99.5737 47.2462 100.042 45.9374L100.237 45.4312L99.435 45.0412C99.1612 44.9062 98.8875 44.7674 98.6137 44.6699C98.4787 45.1987 98.34 45.7049 98.2237 46.2337C97.9312 47.4262 97.5787 50.5124 97.56 51.8212C97.56 51.9374 97.755 51.8999 98.0887 51.6862C98.5575 51.4124 98.7937 51.3749 100.024 51.4124L100.02 51.4049ZM92.4225 51.2887C93.7912 51.2099 95.1975 51.1124 95.5687 51.0524L96.2512 50.9549L96.33 48.7087C96.4462 45.5062 96.915 43.6124 98.3025 40.5824C99.2775 38.4337 99.7087 36.5587 99.495 35.1524C99.4162 34.5487 99.3787 34.5074 98.5575 34.1549C97.0537 33.5578 95.4876 33.1314 93.8887 32.8837C92.3475 32.6699 87.8137 32.7862 86.115 33.1199C85.41 33.2362 84.1237 33.5099 83.265 33.7237C81.135 34.2112 80.0025 34.1549 78.3825 33.4499C76.7812 32.7449 75.765 32.1037 74.8087 31.2037C74.0475 30.4987 73.9687 30.4612 73.7737 30.6974C73.6162 30.8737 73.5375 31.4024 73.4812 32.5349C73.4212 34.2749 73.1475 35.1899 72.3862 36.4199C72.2171 36.673 72.0727 36.9417 71.955 37.2224C71.955 37.2824 72.54 37.9649 73.2637 38.7074C75.765 41.3062 76.995 41.9699 78.9675 41.8312C79.6125 41.7712 80.0625 41.7937 80.0625 41.8687C80.0625 42.0262 78.7912 43.0199 78.2662 43.2937C78.0112 43.4287 77.955 43.5674 77.9925 43.8599L78.3037 45.9112C78.48 47.0849 78.615 47.6287 78.7912 47.7862C79.26 48.1762 81.6825 49.4287 83.205 50.0512C85.1962 50.8537 86.2912 51.1462 87.8137 51.2812C89.6887 51.4387 89.7262 51.4387 92.4225 51.2812V51.2887ZM76.2712 49.1399C76.3087 49.0799 76.1737 47.9474 75.9187 46.6387C75.6075 44.8612 75.4312 44.2162 75.2362 44.0399C75.1012 43.9237 74.3775 43.4137 73.6537 42.8887C72.7028 42.2049 71.8018 41.4542 70.9575 40.6424L69.6112 39.3149L68.8875 39.6862L68.1262 40.0949C68.1903 40.4 68.295 40.6952 68.4375 40.9724C68.6512 41.4412 69.0825 42.5924 69.3937 43.5299C70.215 45.9712 70.86 47.1449 72.48 49.2712L73.0837 50.0737L74.235 50.2499C74.88 50.3474 75.525 50.4862 75.7012 50.5424C75.975 50.6587 76.0125 50.6024 76.0912 49.9762C76.1287 49.7024 76.1887 49.4099 76.2675 49.1362L76.2712 49.1399ZM101.017 24.8437C102.015 24.7462 102.191 24.6074 101.76 24.1612C101.486 23.8874 100.86 23.8687 100.354 24.1012C100.02 24.2587 99.945 24.2174 99.4162 23.6512C98.8687 23.0474 98.8312 23.0249 98.145 23.1037C97.5187 23.1824 97.4212 23.1637 97.3425 22.9087C97.0986 22.4898 96.7955 22.1084 96.4425 21.7762C95.9989 21.2722 95.4443 20.8781 94.8225 20.6249C93.6112 20.1562 92.9287 20.2162 91.7737 20.8612C88.4325 22.6762 88.5712 22.6574 85.3462 21.8362C82.3387 21.0749 80.0925 20.2949 79.3687 19.8037C78.765 19.3949 77.475 18.9449 76.3987 18.8062C75.5962 18.6899 75.09 18.8662 74.3287 19.4887L73.92 19.8224L74.2912 20.4674C74.7975 21.3674 74.7412 21.4237 73.98 20.7599C73.1587 20.0774 72.1837 19.6087 71.5575 19.5862C71.1075 19.5862 69.78 20.1712 69.6225 20.4262C69.5625 20.5049 69.975 20.6024 70.5225 20.6399C71.0887 20.6999 71.8687 20.8949 72.3975 21.1087C73.7662 21.6937 74.4675 21.8887 75.7162 22.0087C77.085 22.1437 79.5637 21.9899 79.8562 21.7537C80.0137 21.6187 80.4412 21.5962 81.3412 21.6749C82.5337 21.7537 83.0212 21.8699 85.8525 22.6312C87.495 23.0812 88.6462 23.0399 90.6 22.5149C91.5 22.2599 92.6325 22.0087 93.1012 21.9487C93.9037 21.8699 94.0575 21.9112 95.31 22.4774C97.3012 23.3774 98.3587 23.9437 98.9437 24.4687C99.5287 24.9749 99.6075 24.9749 101.014 24.8587L101.017 24.8437ZM89.8837 21.4274L91.0762 20.8012L91.0387 19.5899C91.02 18.7499 90.9787 17.9287 90.9412 17.1112L90.8437 15.8624L89.6512 16.7812C88.9462 17.3287 88.2637 17.7374 87.9712 17.7974C87.1125 17.9549 82.875 17.7974 82.4812 17.5837C81.9567 17.1962 81.4661 16.7646 81.015 16.2937L79.92 15.1799L79.9012 15.8437C79.9012 16.1962 79.8637 16.7999 79.785 17.1712C79.6875 17.8762 79.6875 17.8949 80.4487 18.8512C80.8575 19.3799 81.1912 19.8487 81.1912 19.9049C81.1912 20.2762 86.835 22.0349 88.1062 22.0537C88.515 22.0537 89.025 21.8774 89.8837 21.4274ZM87.6187 16.9912C89.025 16.7174 89.7075 15.7012 90.2362 13.1249C90.7837 10.3499 91.0575 5.99619 90.8025 4.13994C90.5662 2.45994 88.6912 1.71744 85.1175 1.83369C82.89 1.91244 81.9712 2.12619 81.21 2.77119C80.7412 3.16119 80.7412 3.20244 80.5275 5.05494C80.1375 8.60994 80.7225 13.6687 81.7387 15.5624C82.2262 16.4812 82.6575 16.8112 83.5537 16.9687C84.57 17.1449 86.7375 17.1449 87.615 16.9874L87.6187 16.9912Z"/>
</g>
<g id="linkedin">
    <g clip-path="url(#clip0_2_5860)">
        <path d="M15 0.600098C7.04698 0.600098 0.599976 7.0471 0.599976 15.0001C0.599976 22.9531 7.04698 29.4001 15 29.4001C22.953 29.4001 29.4 22.9531 29.4 15.0001C29.4 7.0471 22.953 0.600098 15 0.600098ZM11.475 20.9686H8.55898V11.5846H11.475V20.9686ZM9.99898 10.4326C9.07798 10.4326 8.48248 9.7801 8.48248 8.9731C8.48248 8.1496 9.09598 7.5166 10.0365 7.5166C10.977 7.5166 11.553 8.1496 11.571 8.9731C11.571 9.7801 10.977 10.4326 9.99898 10.4326ZM22.125 20.9686H19.209V15.7681C19.209 14.5576 18.786 13.7356 17.7315 13.7356C16.926 13.7356 16.4475 14.2921 16.236 14.8276C16.158 15.0181 16.1385 15.2881 16.1385 15.5566V20.9671H13.221V14.5771C13.221 13.4056 13.1835 12.4261 13.1445 11.5831H15.678L15.8115 12.8866H15.87C16.254 12.2746 17.1945 11.3716 18.768 11.3716C20.6865 11.3716 22.125 12.6571 22.125 15.4201V20.9686Z"/>
        </g>
        <defs>
        <clipPath id="clip0_2_5860">
        <rect width="30" height="30" fill="white"/>
        </clipPath>
        </defs>
</g>
<g id="bootstrap">
    <g clip-path="url(#clip0_2_5874)">
        <path d="M0 75.7821C0 81.9781 5.08028 87 11.3468 87H76.6528C82.9204 87 88 81.9774 88 75.7821V11.2182C88 5.02187 82.9197 0 76.6532 0H11.3472C5.07959 0 0 5.02255 0 11.2179V75.7818V75.7821Z" fill="#563D7C"/>
        <path d="M36.4918 38.4832V26.1629H47.4612C48.5062 26.1629 49.5134 26.2489 50.4834 26.4212C51.4535 26.5931 52.3119 26.9003 53.0581 27.3431C53.8041 27.786 54.4012 28.4007 54.8491 29.1875C55.2966 29.9746 55.5208 30.9829 55.5208 32.2121C55.5208 34.4255 54.8491 36.0241 53.5057 37.0076C52.1627 37.9915 50.4463 38.4832 48.3567 38.4832H36.4918ZM24.7758 17.1621V69.8379H50.5955C52.9835 69.8379 55.3094 69.5429 57.5729 68.9526C59.8365 68.3623 61.8513 67.4525 63.6174 66.223C65.3833 64.9934 66.7889 63.407 67.8335 61.4645C68.8785 59.5216 69.4007 57.2222 69.4007 54.5663C69.4007 51.2709 68.5922 48.4553 66.9755 46.1192C65.3585 43.7828 62.9083 42.1474 59.6248 41.2129C62.0128 40.0819 63.8165 38.6307 65.0354 36.8601C66.254 35.0895 66.8635 32.8765 66.8635 30.2203C66.8635 27.7612 66.453 25.6956 65.6322 24.0232C64.8113 22.3512 63.6546 21.0108 62.162 20.0025C60.6698 18.9942 58.8789 18.2686 56.7892 17.8262C54.6999 17.3833 52.3864 17.1621 49.8492 17.1621H24.7758ZM36.4918 60.8371V46.3771H49.2521C51.7894 46.3771 53.8292 46.9548 55.3716 48.111C56.9136 49.2668 57.685 51.1971 57.685 53.9023C57.685 55.2797 57.4485 56.4107 56.9759 57.296C56.5032 58.1813 55.869 58.8823 55.0729 59.3986C54.2771 59.9151 53.3565 60.2839 52.3118 60.5054C51.2668 60.7263 50.1727 60.8371 49.0284 60.8371H36.4918Z" fill="white"/>
        </g>
        <defs>
        <clipPath id="clip0_2_5874">
        <rect width="88" height="87" fill="white"/>
        </clipPath>
        </defs>
</g>
<g id="git">
    <g clip-path="url(#clip0_2_5868)">
        <path d="M103.02 47.8219L57.1758 1.98038C54.5372 -0.6598 50.2552 -0.6598 47.6134 1.98038L38.0937 11.5001L50.1699 23.5763C52.9762 22.6281 56.1943 23.2642 58.4313 25.5012C60.6789 27.7525 61.3106 30.9981 60.3393 33.8134L71.9775 45.452C74.7932 44.482 78.0421 45.1095 80.291 47.3621C83.434 50.5039 83.434 55.596 80.291 58.7399C77.1471 61.8841 72.055 61.8841 68.9095 58.7399C66.5454 56.3733 65.9613 52.9013 67.1582 49.9888L56.3046 39.1352L56.3034 67.6973C57.0902 68.0863 57.8088 68.6002 58.4313 69.2189C61.5743 72.3607 61.5743 77.4532 58.4313 80.5995C55.2874 83.7422 50.1929 83.7422 47.0535 80.5995C43.9105 77.4532 43.9105 72.3611 47.0535 69.2193C47.8067 68.4658 48.7019 67.869 49.6871 67.4635V38.6352C48.7004 38.2324 47.8048 37.6353 47.0535 36.8793C44.6722 34.5013 44.0996 31.0071 45.3198 28.0831L33.4154 16.1775L1.98105 47.6099C-0.660352 50.2525 -0.660352 54.5349 1.98105 57.1755L47.8259 103.018C50.4652 105.658 54.7464 105.658 57.3891 103.018L103.019 57.3884C105.66 54.747 105.66 50.4621 103.019 47.8219" fill="#DE4C36"/>
        </g>
        <defs>
        <clipPath id="clip0_2_5868">
        <rect width="105" height="105" fill="white"/>
        </clipPath>
        </defs>
</g>
<g id="react">
    <g clip-path="url(#clip0_2_5870)">
        <path d="M92.9056 32.7028C91.7031 32.2887 90.4904 31.9051 89.2687 31.5524C89.4739 30.7107 89.6628 29.8792 89.8306 29.0624C92.5838 15.6484 90.7839 4.84184 84.6361 1.28381C78.7416 -2.12716 69.1016 1.42955 59.3659 9.93348C58.4064 10.7731 57.4682 11.6369 56.5522 12.524C55.9389 11.9341 55.3149 11.3556 54.6803 10.7889C44.4767 1.69623 34.2493 -2.13602 28.1081 1.43221C22.2189 4.8538 20.475 15.0127 22.9538 27.7254C23.2004 28.9845 23.4788 30.2371 23.7888 31.4819C22.3412 31.8948 20.9442 32.3342 19.6073 32.802C7.64443 36.9882 0.00476074 43.5483 0.00476074 50.353C0.00476074 57.3809 8.20629 64.4301 20.6662 68.7044C21.6763 69.0495 22.6949 69.3693 23.7209 69.6635C23.3877 71.0042 23.0918 72.3541 22.8337 73.7114C20.4706 86.2035 22.316 96.1224 28.1893 99.5223C34.2555 103.033 44.437 99.4248 54.3506 90.7268C55.1545 90.0197 55.9407 89.2925 56.7084 88.546C57.7004 89.5067 58.7189 90.4394 59.7627 91.343C69.366 99.6365 78.8502 102.985 84.7177 99.5763C90.7782 96.055 92.748 85.3995 90.1907 72.4357C89.9893 71.42 89.7634 70.4094 89.5132 69.4048C90.2282 69.1921 90.93 68.9733 91.6141 68.7456C104.567 64.4385 112.995 57.4748 112.995 50.353C112.995 43.5235 105.109 36.9191 92.9056 32.7028ZM90.0963 64.1474C89.4783 64.3525 88.8445 64.5506 88.1984 64.7433C86.7683 60.1996 84.8387 55.3684 82.4769 50.3764C84.7305 45.5036 86.586 40.7341 87.9759 36.2201C89.1319 36.5558 90.2534 36.9098 91.3347 37.2832C101.791 40.8962 108.169 46.2372 108.169 50.353C108.169 54.7367 101.281 60.4277 90.0963 64.1474ZM85.4557 73.3765C86.5865 79.1087 86.7476 84.2916 85.9986 88.3436C85.3259 91.9845 83.9727 94.4116 82.299 95.3839C78.7385 97.4526 71.1235 94.7637 62.911 87.6707C61.9401 86.8305 60.9927 85.9634 60.0699 85.0704C63.2539 81.5757 66.4358 77.5131 69.5412 73.0009C75.0036 72.5145 80.1641 71.7189 84.844 70.6332C85.0694 71.5426 85.2734 72.4574 85.4557 73.3765ZM38.5257 95.0264C35.0469 96.2592 32.2759 96.2947 30.6009 95.3254C27.0369 93.2625 25.5552 85.2981 27.5762 74.6151C27.8165 73.3527 28.0916 72.0973 28.4012 70.8502C33.0294 71.8779 38.1523 72.6168 43.6275 73.0625C46.7542 77.4777 50.0278 81.5358 53.3271 85.0894C52.6259 85.7704 51.9082 86.4339 51.1745 87.0793C46.7904 90.9253 42.3974 93.6541 38.5257 95.0264ZM22.2277 64.1204C16.7181 62.2302 12.168 59.7739 9.04931 57.0934C6.24661 54.6849 4.83202 52.2932 4.83202 50.353C4.83202 46.2235 10.9657 40.9564 21.1962 37.3767C22.4378 36.9426 23.7372 36.5328 25.0856 36.1483C26.4997 40.7642 28.3544 45.5905 30.5926 50.4708C28.3252 55.4233 26.4441 60.3267 25.0163 64.9971C24.0798 64.7278 23.15 64.4355 22.2277 64.1204ZM27.691 26.7947C25.5676 15.9031 26.9777 7.68712 30.5268 5.62504C34.3067 3.42873 42.6653 6.56017 51.4755 14.4116C52.05 14.9247 52.6152 15.4483 53.1708 15.982C49.8879 19.5201 46.6443 23.5481 43.5454 27.9372C38.2313 28.4315 33.1446 29.2254 28.4678 30.289C28.1797 29.1311 27.9206 27.9661 27.691 26.7952V26.7947ZM76.4301 38.874C75.3255 36.9589 74.1799 35.068 72.9941 33.2025C76.5992 33.6601 80.0533 34.2674 83.297 35.0098C82.3233 38.1426 81.1095 41.4176 79.6808 44.7754C78.6365 42.7867 77.5527 40.8192 76.4301 38.874ZM56.5544 19.4443C58.7806 21.8652 61.0104 24.5679 63.2036 27.5004C58.7546 27.2895 54.2982 27.2886 49.8491 27.4977C52.0445 24.5922 54.2932 21.8931 56.5544 19.4443ZM36.5511 38.9072C35.4425 40.8368 34.3789 42.792 33.3613 44.7714C31.956 41.4255 30.7532 38.1355 29.7712 34.9584C32.9949 34.2346 36.4328 33.6428 40.0149 33.1936C38.8159 35.0705 37.661 36.9754 36.5511 38.9067V38.9072ZM40.1178 67.857C36.4169 67.4424 32.9274 66.8811 29.7045 66.1768C30.702 62.943 31.9312 59.583 33.367 56.1653C34.3887 58.1462 35.4567 60.1026 36.57 62.0331C37.7149 64.0177 38.9005 65.9615 40.1178 67.857ZM56.6877 81.6027C54.3996 79.1256 52.1177 76.3848 49.8892 73.4372C52.0528 73.5223 54.2584 73.5657 56.5001 73.5657C58.8031 73.5657 61.0797 73.5139 63.3206 73.4138C61.1203 76.4145 58.8989 79.1592 56.6877 81.6027ZM79.7263 55.9908C81.2366 59.4461 82.5096 62.7884 83.5203 65.9668C80.2444 66.7172 76.7073 67.3214 72.9804 67.7702C74.1746 65.87 75.3311 63.9462 76.4491 61.9999C77.5858 60.0215 78.6784 58.018 79.7263 55.9908ZM72.268 59.5794C70.5565 62.5635 68.7487 65.491 66.8475 68.3571C63.4038 68.6019 59.9525 68.7235 56.5001 68.7217C52.9837 68.7217 49.5635 68.6118 46.27 68.3974C44.3193 65.5379 42.477 62.6053 40.7472 59.606H40.7476C39.0259 56.6225 37.4177 53.5745 35.9265 50.4686C37.4139 47.3619 39.0172 44.3125 40.733 41.3268L40.7326 41.3272C42.4478 38.3407 44.2753 35.4207 46.2113 32.5734C49.5715 32.3183 53.0172 32.1854 56.4996 32.1854H56.5001C59.9984 32.1854 63.4486 32.3196 66.8078 32.5765C68.7243 35.4195 70.5402 38.3295 72.2521 41.3011C73.9736 44.2802 75.5982 47.3148 77.1231 50.3999C75.6138 53.5166 73.9944 56.5784 72.268 59.5794ZM82.2253 5.48062C86.0087 7.67073 87.4803 16.5025 85.103 28.0842C84.9512 28.8231 84.7808 29.5758 84.5955 30.339C79.9072 29.2528 74.8169 28.4453 69.4874 27.9434C66.3828 23.506 63.1656 19.4718 59.9361 15.9793C60.7825 15.1605 61.6491 14.3628 62.5349 13.5872C70.8768 6.30147 78.6732 3.42474 82.2253 5.48062ZM56.5001 40.2264C62.0724 40.2264 66.5898 44.7603 66.5898 50.353C66.5898 55.9456 62.0724 60.4796 56.5001 60.4796C50.9278 60.4796 46.4104 55.9456 46.4104 50.353C46.4104 44.7603 50.9278 40.2264 56.5001 40.2264Z" fill="#00D8FF"/>
        </g>
        <defs>
        <clipPath id="clip0_2_5870">
        <rect width="113" height="101" fill="white"/>
        </clipPath>
        </defs>
</g>
<g id="sass">
    <g clip-path="url(#clip0_2_5872)">
        <path d="M100.673 50.0767C96.603 50.0975 93.0653 51.0695 90.1035 52.5064C89.0162 50.3721 87.9295 48.4708 87.738 47.0761C87.5246 45.4494 87.2691 44.4561 87.5246 42.5122C87.7805 40.5683 88.9312 37.8002 88.9098 37.589C88.8887 37.3779 88.6538 36.3846 86.3098 36.3638C83.9658 36.3425 81.9413 36.8074 81.7068 37.42C81.4724 38.0326 81.025 39.4274 80.7266 40.8638C80.3216 42.9771 76.0386 50.5199 73.5881 54.4711C72.7993 52.9291 72.1174 51.5765 71.968 50.499C71.755 48.8723 71.4991 47.879 71.755 45.9351C72.0109 43.9912 73.1617 41.2235 73.1402 41.0119C73.1187 40.8008 72.8843 39.8075 70.5403 39.7867C68.1958 39.7654 66.1713 40.2303 65.9373 40.8429C65.7029 41.456 65.4469 42.8924 64.957 44.2871C64.4667 45.6818 58.7769 58.2751 57.2852 61.5285C56.6824 62.8454 56.0501 64.1487 55.3886 65.4376C55.3886 65.4376 55.3672 65.5011 55.3032 65.6067C55.0954 66.0108 54.8824 66.4123 54.6643 66.8111V66.8319C54.3444 67.4028 54.0035 67.9307 53.833 67.9307C53.705 67.9307 53.4706 66.4096 53.8755 64.3388C54.7278 59.9652 56.7524 53.1616 56.7313 52.9291C56.7313 52.8022 57.1148 51.6191 55.4101 51.0061C53.7475 50.3934 53.1511 51.4075 53.0017 51.4075C52.8527 51.4075 52.7458 51.7669 52.7458 51.7669C52.7458 51.7669 54.6003 44.1181 49.2085 44.1181C45.8417 44.1181 41.1958 47.7735 38.8943 51.0695C36.278 52.4812 33.6639 53.8969 31.052 55.3166C29.7953 56.014 28.4951 56.7114 27.2803 57.3661C27.1949 57.2818 27.1099 57.1758 27.0244 57.0915C20.5034 50.1823 8.442 45.3012 8.95339 36.0257C9.14534 32.645 10.3171 23.7705 32.1178 12.9948C50.0608 4.22589 64.3392 6.65555 66.8111 12.0437C70.3484 19.735 59.1608 34.0184 40.6204 36.0887C33.5455 36.8708 29.8373 34.1661 28.9 33.152C27.9197 32.0953 27.7703 32.0319 27.4079 32.2435C26.8115 32.5607 27.1949 33.5114 27.4079 34.0605C27.9622 35.497 30.2422 38.0326 34.0994 39.2796C37.5091 40.378 45.7988 40.9911 55.8361 37.1454C67.0666 32.8348 75.8466 20.8547 73.2682 10.8184C70.6893 0.633969 53.641 -2.7255 37.5091 2.95805C27.9197 6.33927 17.52 11.6635 10.0402 18.594C1.15363 26.8341 -0.253039 33.9971 0.322334 36.9977C2.38984 47.6466 17.2006 54.5771 23.1248 59.7115C22.8263 59.8805 22.5489 60.0287 22.3149 60.1556C19.3526 61.6133 8.05811 67.4658 5.24523 73.6569C2.04891 80.6717 5.75708 85.7009 8.20756 86.3765C15.8154 88.4686 23.6362 84.7077 27.8342 78.4953C32.0323 72.2834 31.5209 64.2119 29.5818 60.5144C29.5604 60.4723 29.5393 60.4297 29.4964 60.3876C30.2637 59.9439 31.052 59.479 31.8194 59.0354C33.2296 58.2088 34.6578 57.4127 36.1029 56.6475C35.3781 58.6127 34.8452 60.958 34.5897 64.3388C34.2698 68.3114 35.9105 73.4666 38.063 75.4947C39.0223 76.3829 40.1515 76.4037 40.8763 76.4037C43.3908 76.4037 44.5205 74.3329 45.7778 71.882C47.3119 68.8818 48.6971 65.3955 48.6971 65.3955C48.6971 65.3955 46.971 74.8191 51.6595 74.8191C53.3641 74.8191 55.0902 72.6215 55.8575 71.5018V71.5227C55.8575 71.5227 55.9 71.4592 55.9855 71.3115C56.156 71.0369 56.2624 70.8674 56.2624 70.8674V70.8257C56.9443 69.6422 58.4789 66.9588 60.7589 62.5005C63.6998 56.7535 66.5342 49.5697 66.5342 49.5697C66.5342 49.5697 66.7901 51.3232 67.6634 54.2391C68.1753 55.9506 69.2401 57.831 70.0929 59.6481C69.411 60.5992 68.9846 61.1271 68.9846 61.1271L69.0061 61.1484C68.4518 61.8666 67.8554 62.6482 67.1945 63.4095C64.8716 66.1558 62.1016 69.3046 61.7178 70.2127C61.2699 71.2902 61.3768 72.0723 62.2296 72.7062C62.8475 73.1711 63.9553 73.2341 65.085 73.1711C67.1735 73.0229 68.6437 72.5159 69.3681 72.1992C70.4978 71.7977 71.819 71.1846 73.0548 70.2761C75.3352 68.6068 76.72 66.2193 76.5925 63.0714C76.5285 61.3387 75.9531 59.6059 75.2498 57.9787C75.4632 57.6833 75.6547 57.3874 75.8681 57.0915C79.4693 51.8724 82.2612 46.1463 82.2612 46.1463C82.2612 46.1463 82.5171 47.8999 83.3905 50.8162C83.8168 52.2952 84.6907 53.9011 85.4575 55.4644C82.0693 58.1904 79.9807 61.3595 79.2349 63.4303C77.8926 67.276 78.9365 69.0083 80.9185 69.4097C81.8133 69.6 83.092 69.1773 84.0298 68.7758C85.2231 68.3956 86.6297 67.7409 87.9724 66.7685C90.2529 65.0996 92.4474 62.7751 92.3195 59.6272C92.2555 58.1904 91.8721 56.7743 91.3392 55.4009C94.2161 54.2183 97.9242 53.563 102.655 54.1122C112.799 55.2953 114.802 61.5707 114.418 64.2124C114.035 66.8532 111.904 68.2901 111.201 68.7337C110.497 69.1777 110.263 69.3254 110.327 69.6422C110.412 70.1071 110.753 70.0862 111.35 70.0015C112.181 69.8538 116.678 67.8673 116.869 63.0075C117.189 56.7956 111.222 50.0133 100.673 50.0767ZM22.4214 76.2347C19.0542 79.8688 14.3662 81.2422 12.3417 80.0804C10.1681 78.8334 11.0204 73.4666 15.1545 69.6213C17.669 67.276 20.9083 65.0992 23.0608 63.7683C23.5507 63.4724 24.2755 63.0501 25.1493 62.5218C25.2983 62.437 25.3838 62.3949 25.3838 62.3949L25.8952 62.0777C27.4078 67.5714 25.9591 72.4103 22.4214 76.2347ZM46.9285 59.7115C45.7563 62.5431 43.3058 69.7904 41.8141 69.3889C40.5354 69.0509 39.7466 63.5572 41.5582 58.1269C42.4745 55.4009 44.4136 52.147 45.5433 50.8796C47.3759 48.851 49.4005 48.1745 49.8904 48.9992C50.5087 50.0767 47.6529 57.9366 46.9285 59.7115ZM67.152 69.3042C66.6617 69.5579 66.1932 69.7269 65.9798 69.6C65.8308 69.5153 66.1932 69.1773 66.1932 69.1773C66.1932 69.1773 68.7292 66.473 69.7305 65.2473C70.3063 64.5291 70.9877 63.684 71.7125 62.7329V63.0075C71.7125 66.2406 68.5583 68.4169 67.1516 69.3042H67.152ZM82.7511 65.7757C82.3887 65.5219 82.4527 64.6768 83.6674 62.0356C84.1363 61.0002 85.2441 59.2679 87.1411 57.5986C87.3541 58.2746 87.5035 58.9299 87.4821 59.5425C87.4606 63.6206 84.5202 65.1417 82.7511 65.7757Z" fill="#CD6799"/>
        </g>
        <defs>
        <clipPath id="clip0_2_5872">
        <rect width="117" height="87" fill="white"/>
        </clipPath>
        </defs>
</g>
<g id="rectangle">
    <rect x="543.236" y="115.331" width="443" height="443" transform="rotate(105 543.236 115.331)" stroke="url(#paint0_linear_19_1822)" stroke-opacity="0.5"/>
    <defs>
    <linearGradient id="paint0_linear_19_1822" x1="765.849" y1="114.978" x2="765.849" y2="549.478" gradientUnits="userSpaceOnUse">
    <stop stop-color="white"/>
    <stop offset="1" stop-color="white" stop-opacity="0"/>
    </linearGradient>
    </defs>
</g>
<g id="vector">
<path d="M72.6971 69.5627C76.5688 69.1619 79.5061 65.8242 79.3725 61.8184C79.2393 57.8131 75.9012 54.6086 71.8959 54.6086H71.6291C67.4897 54.7422 64.2856 58.2135 64.4193 62.3525C64.5529 64.3553 65.3537 66.091 66.5553 67.2926C62.016 76.2385 55.0734 82.7807 44.6594 88.2549C37.5832 91.9934 30.2402 93.3287 22.8971 92.3943C16.8889 91.593 12.216 88.923 9.27827 84.5164C5.00614 77.9742 4.60573 70.8975 8.21065 63.8213C10.7475 58.7475 14.7525 55.009 17.2893 53.1398C16.7553 51.4041 15.9541 48.4668 15.5537 46.3307C-3.80574 60.35 -1.80287 79.3094 4.07172 88.2549C8.47745 94.9311 17.4229 99.0701 27.3029 99.0701C29.9729 99.0701 32.643 98.8029 35.3135 98.1357C52.4033 94.7975 65.3541 84.65 72.6971 69.5627ZM96.1955 53.0066C86.0483 41.1234 71.0951 34.5811 54.0053 34.5811H51.8693C50.6676 32.1779 48.1307 30.5754 45.327 30.5754H45.0598C40.9213 30.709 37.7172 34.1803 37.8504 38.3197C37.984 42.325 41.3217 45.5295 45.327 45.5295H45.5938C48.5311 45.3959 51.068 43.5266 52.1361 40.9898H54.5393C64.6865 40.9898 74.2992 43.927 82.9779 49.6684C89.6533 54.0746 94.4598 59.816 97.1299 66.7586C99.3996 72.3664 99.266 77.8406 96.8627 82.5139C93.1246 89.5902 86.8496 93.4623 78.5717 93.4623C73.2311 93.4623 68.1578 91.8598 65.4873 90.6582C64.0188 91.9934 61.3484 94.1295 59.4791 95.4652C65.2205 98.1352 71.0951 99.6041 76.7025 99.6041C89.5197 99.6041 98.9992 92.5275 102.604 85.4512C106.476 77.707 106.209 64.3553 96.1955 53.0066ZM28.3709 71.832C28.5045 75.8377 31.8422 79.0418 35.8475 79.0418H36.1147C40.2537 78.9086 43.4578 75.4369 43.3242 71.2979C43.191 67.2922 39.8529 64.0881 35.8475 64.0881H35.5807C35.3135 64.0881 34.9127 64.0881 34.6463 64.2213C29.1721 55.1422 26.9025 45.2623 27.7037 34.5807C28.2373 26.5697 30.9078 19.6266 35.5807 13.8852C39.4525 8.94508 46.9291 6.5418 52.0029 6.40861C66.1549 6.14139 72.1627 23.7656 72.5635 30.8422C74.2992 31.2426 77.2365 32.1775 79.2393 32.8451C77.6369 11.2156 64.2856 0 51.4688 0C39.4524 0 28.3709 8.67869 23.9647 21.4963C17.8234 38.5865 21.8287 55.009 29.3053 67.9602C28.6381 68.8947 28.2373 70.3635 28.3709 71.8324V71.832Z" fill="#764ABC"/>
</g>
<g id="css">
    <path d="M22.1325 101.154L13.71 7.4375H106.29L97.8562 101.139L59.9437 111.562L22.1325 101.154Z" fill="#1572B6"/>
    <path d="M60 103.597L90.6375 95.1739L97.845 15.1018H60V103.597Z" fill="#33A9DC"/>
    <path d="M60 49.054H75.3375L76.395 37.2842H60V25.7896H89.0625L88.785 28.8724L85.9387 60.5487H60V49.054Z" fill="white"/>
    <path d="M60.0713 78.9045L60.0188 78.9193L47.1113 75.4609L46.2863 66.2942H34.65L36.2738 84.3413L60.015 90.8788L60.0713 90.864V78.9045Z" fill="#EBEBEB"/>
    <path d="M74.3513 60.0615L72.9563 75.4534L60.03 78.9119V90.8714L83.79 84.3412L83.9663 82.4001L85.98 60.0615H74.3513Z" fill="white"/>
    <path d="M60.0413 25.7896V37.2842H32.0438L31.8113 34.6997L31.2825 28.8724L31.005 25.7896H60.0413ZM60 49.054V60.5487H47.2538L47.0213 57.9642L46.4963 52.1369L46.2188 49.054H60Z" fill="#EBEBEB"/>    
</g>
<g id="html">
    <path d="M22.1325 102.004L13.7063 7.5H106.294L97.8563 101.989L59.9438 112.5L22.1325 102.004Z" fill="#E44F26"/>
    <path d="M60 104.468L90.6375 95.9738L97.845 15.2288H60V104.468Z" fill="#F1662A"/>
    <path d="M60 50.2763H44.6625L43.605 38.4075H60V26.8163H30.9375L31.215 29.9288L34.0613 61.8675H60V50.2763ZM60 80.3775L59.9475 80.3925L47.04 76.9088L46.215 67.665H34.5787L36.2025 85.86L59.9475 92.4525L60 92.4375V80.3775Z" fill="#EBEBEB"/>
    <path d="M59.9587 50.2763V61.8675H74.2312L72.8887 76.9013L59.9587 80.3888V92.4488L83.7225 85.86L83.895 83.9025L86.6175 53.3888L86.9025 50.2763H59.9587ZM59.9587 26.8163V38.4075H87.9562L88.1887 35.805L88.7175 29.9288L88.995 26.8163H59.9587Z" fill="white"/>    
</g>
<g id="js">
    <path d="M7.5 7.5H112.5V112.5H7.5V7.5Z" fill="#F5DE19"/>
    <path d="M78.0338 89.5312C78.9284 91.3485 80.3183 92.8759 82.0434 93.9375C83.7684 94.9991 85.7584 95.5515 87.7838 95.5313C91.8713 95.5313 94.485 93.4875 94.485 90.6562C94.485 87.2812 91.8 86.0738 87.3 84.105L84.8325 83.0475C77.7075 80.0138 72.9825 76.215 72.9825 68.1825C72.9825 60.7838 78.6075 55.1475 87.4313 55.1475C90.2877 54.9412 93.1416 55.5805 95.637 56.9856C98.1324 58.3907 100.159 60.4994 101.464 63.0488L93.75 67.98C93.2476 66.716 92.3728 65.6345 91.2416 64.879C90.1105 64.1236 88.7764 63.7298 87.4163 63.75C86.8229 63.6906 86.2236 63.7555 85.6567 63.9404C85.0897 64.1254 84.5675 64.4265 84.1234 64.8244C83.6792 65.2224 83.3228 65.7085 83.0769 66.2518C82.831 66.7951 82.7009 67.3837 82.695 67.98C82.695 70.9388 84.5288 72.1388 88.7625 73.98L91.23 75.0375C99.615 78.6338 104.355 82.2975 104.355 90.5363C104.355 99.42 97.3763 104.287 88.005 104.287C84.3537 104.52 80.713 103.691 77.5223 101.901C74.3317 100.11 71.7274 97.4342 70.0238 94.1963L78.0338 89.5312ZM43.1775 90.3863C44.7263 93.135 46.1363 95.46 49.5263 95.46C52.7663 95.46 54.8138 94.1925 54.8138 89.2612V55.71H64.68V89.3925C64.68 99.6075 58.68 104.257 49.9463 104.257C46.8591 104.426 43.7931 103.657 41.1513 102.051C38.5096 100.444 36.4157 98.0761 35.145 95.2575L43.1775 90.3863Z" fill="black"/>    
</g>
<g id="tailwind">
    <path d="M36.8438 56.0844C40.6646 40.8011 50.2167 33.1594 65.5 33.1594C88.425 33.1594 91.2906 50.3532 102.753 53.2188C110.395 55.1292 117.081 52.2636 122.812 44.6219C118.992 59.9053 109.44 67.5469 94.1562 67.5469C71.2313 67.5469 68.3656 50.3532 56.9031 47.4875C49.2615 45.5771 42.575 48.4428 36.8438 56.0844ZM8.1875 90.4719C12.0083 75.1886 21.5604 67.5469 36.8438 67.5469C59.7687 67.5469 62.6344 84.7407 74.0969 87.6063C81.7385 89.5167 88.425 86.6511 94.1562 79.0094C90.3354 94.2928 80.7833 101.934 65.5 101.934C42.575 101.934 39.7094 84.7407 28.2469 81.875C20.6052 79.9646 13.9187 82.8303 8.1875 90.4719Z" fill="#44A8B3"/>
</g>
<g id="vscode">
    <path d="M101.535 17.605L81.354 7.88899C80.2143 7.33948 78.9319 7.15814 77.6845 7.37011C76.4372 7.58208 75.2867 8.17686 74.3925 9.07199L8.32998 69.3C7.52845 70.0273 7.04865 71.0432 6.99614 72.1243C6.94363 73.2053 7.32271 74.2629 8.04998 75.0645C8.13748 75.159 8.22498 75.25 8.31948 75.334L13.713 80.234C14.4178 80.8754 15.3249 81.2497 16.277 81.2919C17.229 81.3341 18.1657 81.0416 18.9245 80.465L98.497 20.125C99.098 19.6689 99.8144 19.3897 100.566 19.3186C101.317 19.2476 102.073 19.3877 102.749 19.7231C103.424 20.0585 103.993 20.5758 104.391 21.217C104.789 21.8581 105 22.5975 105 23.352V23.1175C105 21.9656 104.675 20.8372 104.062 19.862C103.449 18.8868 102.573 18.1045 101.535 17.605Z" fill="#0065A9"/>
    <path d="M101.535 94.395L81.354 104.115C80.214 104.662 78.9319 104.843 77.6849 104.631C76.4379 104.419 75.2875 103.825 74.3925 102.932L8.32998 42.7C7.52845 41.9727 7.04865 40.9568 6.99614 39.8758C6.94363 38.7947 7.32271 37.7371 8.04998 36.9355C8.13748 36.841 8.22498 36.75 8.31948 36.666L13.713 31.766C14.4185 31.1219 15.3277 30.7459 16.2821 30.7037C17.2365 30.6615 18.1754 30.9557 18.935 31.535L98.497 91.875C99.098 92.3311 99.8144 92.6104 100.566 92.6814C101.317 92.7524 102.073 92.6123 102.749 92.2769C103.424 91.9415 103.993 91.4242 104.391 90.783C104.789 90.1419 105 89.4025 105 88.648V88.9C104.996 90.0488 104.669 91.1733 104.057 92.1451C103.444 93.1168 102.57 93.8965 101.535 94.395Z" fill="#007ACC"/>
    <path d="M81.354 104.115C80.214 104.662 78.932 104.843 77.685 104.631C76.438 104.419 75.2876 103.825 74.3925 102.932C74.8952 103.428 75.533 103.764 76.2261 103.899C76.9193 104.035 77.6369 103.962 78.289 103.691C78.9412 103.42 79.4988 102.963 79.8921 102.376C80.2855 101.79 80.4969 101.1 80.5 100.394V11.606C80.5006 10.8965 80.2906 10.2028 79.8966 9.61281C79.5026 9.02277 78.9424 8.56294 78.2868 8.29158C77.6313 8.02022 76.91 7.94953 76.2142 8.08846C75.5184 8.2274 74.8796 8.56971 74.3785 9.07204C75.2729 8.17723 76.4232 7.58242 77.6703 7.36986C78.9174 7.1573 80.1998 7.3375 81.34 7.88554L101.518 17.5875C102.559 18.0845 103.438 18.8658 104.054 19.8412C104.671 20.8166 104.998 21.9463 105 23.1V88.9C105 90.0528 104.675 91.1823 104.061 92.1582C103.448 93.1341 102.571 93.9168 101.532 94.416L81.354 104.115Z" fill="#1F9CF0"/>    
</g>
<g id="building">
<path id="Vector" d="M3.3335 1.5V10.5H7.3335V8.75H8.66683V10.5H12.6668V1.5H3.3335ZM4.66683 2.5H6.00016V3.5H4.66683V2.5ZM7.3335 2.5H8.66683V3.5H7.3335V2.5ZM10.0002 2.5H11.3335V3.5H10.0002V2.5ZM4.66683 4.5H6.00016V5.5H4.66683V4.5ZM7.3335 4.5H8.66683V5.5H7.3335V4.5ZM10.0002 4.5H11.3335V5.5H10.0002V4.5ZM4.66683 6.5H6.00016V7.5H4.66683V6.5ZM7.3335 6.5H8.66683V7.5H7.3335V6.5ZM10.0002 6.5H11.3335V7.5H10.0002V6.5ZM4.66683 8.5H6.00016V9.5H4.66683V8.5ZM10.0002 8.5H11.3335V9.5H10.0002V8.5Z" fill="#A7A7A7"/>
</g>
<g id="calendar">
<g id="Group">
<path id="Vector" d="M5.33341 6.5C5.1566 6.5 4.98703 6.44732 4.86201 6.35355C4.73699 6.25979 4.66675 6.13261 4.66675 6C4.66675 5.86739 4.73699 5.74021 4.86201 5.64645C4.98703 5.55268 5.1566 5.5 5.33341 5.5C5.51023 5.5 5.67979 5.55268 5.80482 5.64645C5.92984 5.74021 6.00008 5.86739 6.00008 6C6.00008 6.13261 5.92984 6.25979 5.80482 6.35355C5.67979 6.44732 5.51023 6.5 5.33341 6.5ZM5.33341 8.5C5.1566 8.5 4.98703 8.44732 4.86201 8.35355C4.73699 8.25979 4.66675 8.13261 4.66675 8C4.66675 7.86739 4.73699 7.74021 4.86201 7.64645C4.98703 7.55268 5.1566 7.5 5.33341 7.5C5.51023 7.5 5.67979 7.55268 5.80482 7.64645C5.92984 7.74021 6.00008 7.86739 6.00008 8C6.00008 8.13261 5.92984 8.25979 5.80482 8.35355C5.67979 8.44732 5.51023 8.5 5.33341 8.5ZM7.33341 8C7.33341 8.13261 7.40365 8.25979 7.52868 8.35355C7.6537 8.44732 7.82327 8.5 8.00008 8.5C8.17689 8.5 8.34646 8.44732 8.47149 8.35355C8.59651 8.25979 8.66675 8.13261 8.66675 8C8.66675 7.86739 8.59651 7.74021 8.47149 7.64645C8.34646 7.55268 8.17689 7.5 8.00008 7.5C7.82327 7.5 7.6537 7.55268 7.52868 7.64645C7.40365 7.74021 7.33341 7.86739 7.33341 8ZM10.6667 8.5C10.4899 8.5 10.3204 8.44732 10.1953 8.35355C10.0703 8.25979 10.0001 8.13261 10.0001 8C10.0001 7.86739 10.0703 7.74021 10.1953 7.64645C10.3204 7.55268 10.4899 7.5 10.6667 7.5C10.8436 7.5 11.0131 7.55268 11.1382 7.64645C11.2632 7.74021 11.3334 7.86739 11.3334 8C11.3334 8.13261 11.2632 8.25979 11.1382 8.35355C11.0131 8.44732 10.8436 8.5 10.6667 8.5ZM7.33341 6C7.33341 6.13261 7.40365 6.25979 7.52868 6.35355C7.6537 6.44732 7.82327 6.5 8.00008 6.5C8.17689 6.5 8.34646 6.44732 8.47149 6.35355C8.59651 6.25979 8.66675 6.13261 8.66675 6C8.66675 5.86739 8.59651 5.74021 8.47149 5.64645C8.34646 5.55268 8.17689 5.5 8.00008 5.5C7.82327 5.5 7.6537 5.55268 7.52868 5.64645C7.40365 5.74021 7.33341 5.86739 7.33341 6ZM10.6667 6.5C10.4899 6.5 10.3204 6.44732 10.1953 6.35355C10.0703 6.25979 10.0001 6.13261 10.0001 6C10.0001 5.86739 10.0703 5.74021 10.1953 5.64645C10.3204 5.55268 10.4899 5.5 10.6667 5.5C10.8436 5.5 11.0131 5.55268 11.1382 5.64645C11.2632 5.74021 11.3334 5.86739 11.3334 6C11.3334 6.13261 11.2632 6.25979 11.1382 6.35355C11.0131 6.44732 10.8436 6.5 10.6667 6.5ZM5.33341 3.5C5.1566 3.5 4.98703 3.55268 4.86201 3.64645C4.73699 3.74021 4.66675 3.86739 4.66675 4C4.66675 4.13261 4.73699 4.25979 4.86201 4.35355C4.98703 4.44732 5.1566 4.5 5.33341 4.5H10.6667C10.8436 4.5 11.0131 4.44732 11.1382 4.35355C11.2632 4.25979 11.3334 4.13261 11.3334 4C11.3334 3.86739 11.2632 3.74021 11.1382 3.64645C11.0131 3.55268 10.8436 3.5 10.6667 3.5H5.33341Z" fill="#A7A7A7"/>
<path id="Vector_2" fill-rule="evenodd" clip-rule="evenodd" d="M4 1.5C3.46957 1.5 2.96086 1.65804 2.58579 1.93934C2.21071 2.22064 2 2.60218 2 3V9C2 9.39782 2.21071 9.77936 2.58579 10.0607C2.96086 10.342 3.46957 10.5 4 10.5H12C12.5304 10.5 13.0391 10.342 13.4142 10.0607C13.7893 9.77936 14 9.39782 14 9V3C14 2.60218 13.7893 2.22064 13.4142 1.93934C13.0391 1.65804 12.5304 1.5 12 1.5H4ZM12 2.5H4C3.82319 2.5 3.65362 2.55268 3.5286 2.64645C3.40357 2.74021 3.33333 2.86739 3.33333 3V9C3.33333 9.13261 3.40357 9.25979 3.5286 9.35355C3.65362 9.44732 3.82319 9.5 4 9.5H12C12.1768 9.5 12.3464 9.44732 12.4714 9.35355C12.5964 9.25979 12.6667 9.13261 12.6667 9V3C12.6667 2.86739 12.5964 2.74021 12.4714 2.64645C12.3464 2.55268 12.1768 2.5 12 2.5Z" fill="#A7A7A7"/>
</g>
</g>
<g id="location">
<path id="Vector" d="M8 6.75C7.50555 6.75 7.0222 6.64003 6.61108 6.43401C6.19995 6.22798 5.87952 5.93514 5.6903 5.59253C5.50108 5.24992 5.45157 4.87292 5.54804 4.50921C5.6445 4.14549 5.8826 3.8114 6.23223 3.54918C6.58187 3.28695 7.02732 3.10838 7.51228 3.03603C7.99723 2.96368 8.4999 3.00081 8.95671 3.14273C9.41353 3.28464 9.80397 3.52496 10.0787 3.83331C10.3534 4.14165 10.5 4.50416 10.5 4.875C10.4992 5.3721 10.2356 5.84867 9.76689 6.20017C9.29822 6.55167 8.6628 6.74941 8 6.75ZM8 3.75C7.70333 3.75 7.41332 3.81598 7.16665 3.9396C6.91997 4.06321 6.72771 4.23892 6.61418 4.44448C6.50065 4.65005 6.47095 4.87625 6.52882 5.09448C6.5867 5.31271 6.72956 5.51316 6.93934 5.6705C7.14912 5.82783 7.41639 5.93498 7.70737 5.97838C7.99834 6.02179 8.29994 5.99951 8.57403 5.91437C8.84812 5.82922 9.08238 5.68502 9.24721 5.50002C9.41203 5.31501 9.5 5.09751 9.5 4.875C9.4996 4.57672 9.34144 4.29075 9.06022 4.07983C8.779 3.86892 8.3977 3.7503 8 3.75Z" fill="#A7A7A7"/>
<path id="Vector_2" d="M8.00001 11.25L3.78201 7.51912C3.7234 7.4631 3.66539 7.40673 3.60801 7.35C2.8875 6.63817 2.49826 5.76871 2.50001 4.875C2.50001 3.78098 3.07947 2.73177 4.11092 1.95818C5.14237 1.1846 6.54132 0.75 8.00001 0.75C9.4587 0.75 10.8576 1.1846 11.8891 1.95818C12.9205 2.73177 13.5 3.78098 13.5 4.875C13.5018 5.7683 13.1127 6.63737 12.3925 7.34888L12.392 7.35C12.392 7.35 12.242 7.49775 12.2195 7.51763L8.00001 11.25ZM4.40601 6.89813C4.40701 6.89813 4.52301 7.01362 4.54951 7.03837L8.00001 10.0905L11.455 7.03425C11.477 7.01362 11.594 6.89738 11.5945 6.897C12.1831 6.31542 12.5012 5.60514 12.5 4.875C12.5 3.97989 12.0259 3.12145 11.182 2.48851C10.3381 1.85558 9.19348 1.5 8.00001 1.5C6.80653 1.5 5.66194 1.85558 4.81803 2.48851C3.97411 3.12145 3.50001 3.97989 3.50001 4.875C3.49896 5.60559 3.81739 6.31628 4.40651 6.89813H4.40601Z" fill="#A7A7A7"/>
</g>
</svg>